<?xml version="1.0" encoding="utf-8"?>
<!-- Generator: Adobe Illustrator 24.3.0, SVG Export Plug-In . SVG Version: 6.00 Build 0)  -->
<svg version="1.1" id="Layer_1" xmlns="http://www.w3.org/2000/svg" xmlns:xlink="http://www.w3.org/1999/xlink" x="0px" y="0px"
	 viewBox="0 0 40 40" style="enable-background:new 0 0 40 40;" xml:space="preserve">
<style type="text/css">
	.st0{opacity:0.15;fill-rule:evenodd;clip-rule:evenodd;fill:#1E90FF;enable-background:new    ;}
	.st1{fill:#1E90FF;}
</style>
<path class="st0" d="M13.3,9.1c-1.1,0-2.7,3.6-2.7,4.4L10.7,28c0,0.8,3,4.2,4.1,4.2L24,33c1.1,0,5.3-4.7,5.3-5.5l0.2-14.8
	c0-0.8-2.3-4.3-3.4-4.3l-1.7-1.2l0.3-0.2h-9.3h0.3L13.3,9.1z"/>
<path class="st1" d="M38.5,15.5c-0.3,0-0.6,0.3-0.6,0.6v5.7h-7.7v-3.4l4.9-4.9c0.1-0.1,0.2-0.3,0.2-0.4V7.3c0-0.3-0.3-0.6-0.7-0.6
	c-0.3,0-0.6,0.3-0.6,0.6v5.5l-3.9,3.9v-1.2c0,0,0,0,0,0v0c0-5.1-4.1-9.2-9.2-9.2h-2c-5.1,0-9.2,4.1-9.2,9.2v0c0,0,0,0,0,0v1.2
	l-3.9-3.9V7.3c0-0.3-0.3-0.6-0.7-0.6C5,6.7,4.7,7,4.7,7.3V13c0,0.2,0.1,0.3,0.2,0.4l4.9,4.9v3.4H2.1v-5.7c0-0.3-0.3-0.6-0.6-0.6
	c-0.3,0-0.6,0.3-0.6,0.6v6.3c0,0.3,0.3,0.6,0.6,0.6h8.3v1.6c0,1,0.2,2,0.5,2.9l-3.8,3.8v-5.6c0-0.3-0.3-0.6-0.6-0.6
	c-0.3,0-0.6,0.3-0.6,0.6l0,0v7.1c0,0.3,0.2,0.5,0.4,0.6c0.2,0.1,0.5,0,0.7-0.1l4.5-4.5c1.6,3.1,4.7,5,8.2,5h2c3.5,0,6.6-2,8.2-5
	l4.5,4.5c0.1,0.1,0.3,0.2,0.4,0.2c0.1,0,0.2,0,0.2,0c0.2-0.1,0.4-0.3,0.4-0.6v-7.1c0-0.3-0.3-0.6-0.6-0.6c-0.3,0-0.6,0.3-0.6,0.6
	l0,0v5.6l-3.8-3.8c0.3-0.9,0.5-1.9,0.5-2.9V23h8.3c0.3,0,0.6-0.3,0.6-0.6v-6.3C39.2,15.7,38.9,15.5,38.5,15.5z M19,7.5h2
	c4.2,0,7.7,3.3,7.9,7.6l-6.6,3.1V14h0c0.9,0,2.1-0.3,2.8-1.3c0.3-0.5,0.7-1.3,0.3-2.5c-0.5-1.5-1.6-2-2.5-1.8s-1.8,0.9-1.8,2.4v1.9
	h-2.2v-1.9c0-1.5-0.9-2.3-1.8-2.4c-0.9-0.1-2.1,0.4-2.5,1.8c-0.4,1.2-0.1,2,0.3,2.5c0.7,0.9,1.9,1.3,2.8,1.3v4.2L11.1,15
	C11.3,10.8,14.8,7.5,19,7.5z M20,19.3l-1.1-0.5V14h2.2v4.8L20,19.3z M17.6,12.7L17.6,12.7c-0.6,0-1.4-0.2-1.8-0.8
	c-0.2-0.3-0.3-0.8-0.1-1.4c0.2-0.6,0.6-1,1-1c0,0,0.1,0,0.1,0c0.3,0.1,0.7,0.4,0.7,1.2L17.6,12.7z M22.4,12.7v-1.9
	c0-0.8,0.4-1.1,0.7-1.2c0.5-0.1,0.9,0.3,1.2,1c0.2,0.6,0.2,1-0.1,1.4C23.8,12.5,23,12.7,22.4,12.7L22.4,12.7z M11.1,24.6v-8.1
	l6.7,3.2c0.1,0.1,0.3,0.2,0.5,0.2l0,0l1.1,0.5v12.1H19C14.6,32.5,11.1,29,11.1,24.6z M21,32.5h-0.4V20.4l1.1-0.5l0,0
	c0.2,0,0.4-0.1,0.5-0.2l6.7-3.2v8.1C28.9,29,25.4,32.5,21,32.5L21,32.5z"/>
</svg>
