<?xml version="1.0" encoding="utf-8"?>
<!-- Generator: Adobe Illustrator 24.3.0, SVG Export Plug-In . SVG Version: 6.00 Build 0)  -->
<svg version="1.1" id="Layer_1" xmlns="http://www.w3.org/2000/svg" xmlns:xlink="http://www.w3.org/1999/xlink" x="0px" y="0px"
	 viewBox="0 0 40 40" style="enable-background:new 0 0 40 40;" xml:space="preserve">
<style type="text/css">
	.st0{opacity:0.2;fill-rule:evenodd;clip-rule:evenodd;fill:#1E90FF;enable-background:new    ;}
	.st1{fill-rule:evenodd;clip-rule:evenodd;fill:#1E90FF;}
</style>
<rect x="8.3" y="8.3" class="st0" width="23.4" height="23.4"/>
<g>
	<rect x="25.9" y="13.5" class="st1" width="2.3" height="13"/>
	<path class="st1" d="M19.1,13.5h-2.5l-4.8,13.1h2.3l0.9-2.6h5.7l0.9,2.6h2.5L19.1,13.5z M18,15.6l2.2,6.5h-4.5L18,15.6z"/>
</g>
<rect x="36" y="27.3" class="st1" width="2.7" height="2.7"/>
<rect x="10" y="36" class="st1" width="2.7" height="2.7"/>
<rect x="18.7" y="36" class="st1" width="2.7" height="2.7"/>
<rect x="10" y="1.3" class="st1" width="2.7" height="2.7"/>
<rect x="27.3" y="36" class="st1" width="2.7" height="2.7"/>
<rect x="18.7" y="1.3" class="st1" width="2.7" height="2.7"/>
<rect x="27.3" y="1.3" class="st1" width="2.7" height="2.7"/>
<rect x="36" y="18.6" class="st1" width="2.7" height="2.7"/>
<rect x="1.3" y="27.3" class="st1" width="2.7" height="2.7"/>
<rect x="36" y="9.9" class="st1" width="2.7" height="2.7"/>
<rect x="1.3" y="18.6" class="st1" width="2.7" height="2.7"/>
<rect x="1.3" y="9.9" class="st1" width="2.7" height="2.7"/>
</svg>
