<?xml version="1.0" encoding="utf-8"?>
<!-- Generator: Adobe Illustrator 24.3.0, SVG Export Plug-In . SVG Version: 6.00 Build 0)  -->
<svg version="1.1" id="Layer_1" xmlns="http://www.w3.org/2000/svg" xmlns:xlink="http://www.w3.org/1999/xlink" x="0px" y="0px"
	 viewBox="0 0 40 40" style="enable-background:new 0 0 40 40;" xml:space="preserve">
<style type="text/css">
	.st0{opacity:0.15;fill-rule:evenodd;clip-rule:evenodd;fill:#1E90FF;enable-background:new    ;}
	.st1{fill:none;stroke:#1E90FF;stroke-width:2;stroke-linecap:round;stroke-linejoin:round;stroke-miterlimit:160;}
	.st2{fill:#1E90FF;}
	.st3{opacity:0.15;fill:#1E90FF;}
</style>
<path class="st0" d="M-46.9,1.4c-2,0-3.6,0.8-3.6,1.8v30.7c0,1,1.6,1.8,3.6,1.8h28.5c2,0,3.6-0.8,3.6-1.8V3.2c0-1-1.6-1.8-3.6-1.8
	h-5.7v0.9H-41V1.4H-46.9z"/>
<path id="primary" class="st1" d="M-42.9,12.8l1.9,1.9l3.8-3.8"/>
<path id="primary-2" class="st1" d="M-42.9,24.2l1.9,1.9l3.8-3.8"/>
<path id="primary-3" class="st1" d="M-23.8,12.8h-5.7 M-23.8,24.2h-5.7 M-18.1,1.4h-30.5c-1.1,0-1.9,0.9-1.9,1.9v30.5
	c0,1.1,0.9,1.9,1.9,1.9h30.5c1.1,0,1.9-0.9,1.9-1.9V3.3C-16.2,2.2-17,1.4-18.1,1.4z"/>
<g id="xxx-word">
	<path class="st2" d="M33.4,9.7V10h-7.8C25.3,10,25,9.8,25,9.5V1.7h0.3l0.8,0.8v6.5h6.5L33.4,9.7z"/>
	<path class="st2" d="M26,0.7c0.1,0.1,0.1,0.2,0.1,0.4v1.3l-0.8-0.8H25V1.1c0-0.3,0.2-0.6,0.6-0.6c0.1,0,0.2,0,0.2,0.1
		C25.9,0.6,25.9,0.6,26,0.7C26,0.7,26,0.7,26,0.7L26,0.7z"/>
	<path class="st2" d="M34.5,9.5c0,0.3-0.2,0.6-0.5,0.6h-0.6V9.7l-0.8-0.8H34c0.1,0,0.3,0.1,0.4,0.2C34.5,9.2,34.5,9.3,34.5,9.5z"/>
	<polygon class="st3" points="32.6,8.9 26.1,8.9 26.1,2.4 	"/>
	<path class="st2" d="M34.5,9.5V15c0,0.3-0.2,0.5-0.5,0.5h0c-0.3,0-0.6-0.2-0.6-0.5V9.7l-0.8-0.8l-6.5-6.5l-0.8-0.8H8.8
		c-1.2,0-2.2,1-2.2,2.2v11c0,0.3-0.2,0.5-0.5,0.6h0c-0.3,0-0.5-0.2-0.5-0.6v-11C5.5,2,7,0.5,8.8,0.5h16.7c0.1,0,0.2,0,0.2,0.1
		c0,0,0.1,0,0.1,0.1c0,0,0,0,0,0l0,0L34.3,9l0.1,0.1C34.5,9.2,34.5,9.3,34.5,9.5z"/>
	<path class="st2" d="M34.5,29v8.4c0,1.8-1.4,2.1-3.2,2.1H9c-1.9,0-3.5-0.3-3.5-2.1V29c0-0.3,0.2-0.6,0.5-0.6c0.3,0,0.6,0.2,0.6,0.6
		v8.4c0,1.2,1.1,1,2.4,1h22.3c1.2,0,2.1,0.2,2.1-1V29c0-0.3,0.2-0.6,0.6-0.6C34.2,28.4,34.5,28.7,34.5,29z"/>
	<path class="st2" d="M28.9,29c0,0.3-0.2,0.6-0.5,0.6H11.6c-0.3,0-0.6-0.2-0.6-0.6s0.2-0.6,0.6-0.6h16.7
		C28.7,28.4,28.9,28.7,28.9,29z"/>
	<path class="st2" d="M20.6,34.6c0,0.3-0.2,0.6-0.6,0.6h-8.4c-0.3,0-0.6-0.2-0.6-0.6s0.2-0.6,0.6-0.6H20
		C20.3,34,20.6,34.3,20.6,34.6z"/>
	<path class="st2" d="M34.5,14.5c-0.2,0-0.3,0-0.5,0h-0.6L6.6,14.3H6c-0.2,0-0.4,0-0.5,0c-1.6,0.3-2.8,1.6-2.8,3.3v8.6
		c0,1.7,1.2,3,2.8,3.3c0.2,0,0.4,0.1,0.5,0.1H34c0.2,0,0.4,0,0.5-0.1c1.6-0.3,2.8-1.6,2.8-3.3v-8.4C37.3,16.2,36.1,14.8,34.5,14.5z
		 M36.2,26.2c0,1.2-1,2.2-2.2,2.2H6c-1.2,0-2.2-1-2.2-2.2v-8.6c0-1.2,1-2.2,2.2-2.2h0L34,15.6h0c1.2,0,2.2,1,2.2,2.2V26.2z M11.1,29
		c0-0.3,0.2-0.6,0.6-0.6H6c0.3,0,0.6,0.2,0.6,0.6v0.6h5C11.3,29.5,11.1,29.3,11.1,29z M33.4,15v-0.6L6.6,14.3v0.6
		c0,0.3-0.2,0.5-0.5,0.6L34,15.6C33.6,15.6,33.4,15.3,33.4,15z"/>
	<path class="st3" d="M6.6,29.5v7.8c0,1.2,1.1,1,2.4,1h22.3c1.2,0,2.1,0.2,2.1-1v-7.8H6.6z M20,35.1h-8.4c-0.3,0-0.6-0.2-0.6-0.6
		s0.2-0.6,0.6-0.6H20c0.3,0,0.6,0.2,0.6,0.6S20.3,35.1,20,35.1z"/>
	<path class="st3" d="M33.4,10v4.4L6.6,14.3V3.9c0-1.2,1-2.2,2.2-2.2H25v7.8c0,0.3,0.2,0.6,0.6,0.6H33.4z"/>
	<path class="st3" d="M34,15.6L34,15.6L6.1,15.4h0c-1.2,0-2.2,1-2.2,2.2v8.6c0,1.2,1,2.2,2.2,2.2H34c1.2,0,2.2-1,2.2-2.2v-8.4
		C36.2,16.6,35.2,15.6,34,15.6z M14.7,24.6h-3.9v-6h3.8v0.9h-2.8v1.6h2.2V22h-2.2v1.7h2.8V24.6z M17.8,24.6L16.8,23l-1,1.6H15
		l1.5-2.3l-1.3-2.1h1.1l0.7,1.3l0.8-1.3h0.8l-1.2,1.9l1.5,2.5H17.8z M22.2,24.3c-0.3,0.3-0.7,0.4-1.2,0.4c-0.6,0-1.1-0.2-1.4-0.7
		c-0.3-0.5-0.5-1-0.5-1.6c0-0.7,0.2-1.2,0.5-1.6c0.3-0.4,0.9-0.7,1.4-0.7c1,0,1.5,0.5,1.7,1.5l-0.8,0.1c-0.1-0.5-0.3-0.8-0.8-0.8
		c-0.3,0-0.6,0.2-0.7,0.4c-0.2,0.3-0.2,0.7-0.2,1.1c0,0.5,0.1,0.8,0.2,1c0.1,0.2,0.4,0.4,0.7,0.4c0.4,0,0.7-0.3,0.9-0.8l0.9,0.1
		C22.7,23.7,22.5,24.1,22.2,24.3z M27.3,22.6h-3c0,0.2,0,0.5,0.1,0.7c0.1,0.2,0.2,0.3,0.3,0.5c0.2,0.1,0.4,0.2,0.6,0.2
		c0.5,0,0.8-0.2,1-0.7l0.9,0.1c-0.1,0.4-0.3,0.7-0.7,1c-0.4,0.3-0.8,0.4-1.3,0.4c-0.6,0-1.1-0.2-1.5-0.6c-0.4-0.4-0.6-1-0.6-1.7
		c0-0.7,0.2-1.2,0.6-1.6c0.4-0.4,0.9-0.7,1.5-0.7c0.6,0,1.1,0.2,1.5,0.6s0.5,1,0.5,1.7V22.6z M29.2,24.6h-1v-6h1V24.6z"/>
	<polygon class="st2" points="14.7,23.7 14.7,24.6 10.8,24.6 10.8,18.7 14.7,18.7 14.7,19.6 11.9,19.6 11.9,21.2 14.1,21.2 14.1,22 
		11.9,22 11.9,23.7 	"/>
	<polygon class="st2" points="18.9,24.6 17.8,24.6 16.8,23 15.8,24.6 15,24.6 16.4,22.4 15.2,20.2 16.3,20.2 17,21.5 17.8,20.2 
		18.7,20.2 17.4,22.1 	"/>
	<path class="st2" d="M22.8,23.1c-0.1,0.5-0.3,1-0.6,1.2c-0.3,0.3-0.7,0.4-1.2,0.4c-0.6,0-1.1-0.2-1.4-0.7c-0.3-0.5-0.5-1-0.5-1.6
		c0-0.7,0.2-1.2,0.5-1.6c0.3-0.4,0.9-0.7,1.4-0.7c1,0,1.5,0.5,1.7,1.5l-0.8,0.1c-0.1-0.5-0.3-0.8-0.8-0.8c-0.3,0-0.6,0.2-0.7,0.4
		c-0.2,0.3-0.2,0.7-0.2,1.1c0,0.5,0.1,0.8,0.2,1c0.1,0.2,0.4,0.4,0.7,0.4c0.4,0,0.7-0.3,0.9-0.8L22.8,23.1z"/>
	<path class="st2" d="M27.3,22.4c0-0.7-0.2-1.2-0.5-1.7s-0.8-0.6-1.5-0.6c-0.6,0-1.2,0.2-1.5,0.7c-0.4,0.4-0.6,1-0.6,1.6
		c0,0.7,0.2,1.3,0.6,1.7c0.4,0.4,0.9,0.6,1.5,0.6c0.5,0,0.9-0.1,1.3-0.4c0.3-0.2,0.6-0.6,0.7-1l-0.9-0.1c-0.2,0.5-0.5,0.7-1,0.7
		c-0.2,0-0.5-0.1-0.6-0.2c-0.2-0.1-0.3-0.3-0.3-0.5c-0.1-0.2-0.1-0.5-0.1-0.7h3V22.4z M24.3,21.9c0-0.3,0.1-0.6,0.3-0.8c0,0,0,0,0,0
		c0.4-0.4,1-0.4,1.4,0c0.2,0.2,0.3,0.5,0.3,0.8H24.3z"/>
	<path class="st3" d="M26.3,21.9h-2c0-0.3,0.1-0.6,0.3-0.8c0,0,0,0,0,0c0.4-0.4,1-0.4,1.4,0C26.2,21.3,26.3,21.6,26.3,21.9z"/>
	<rect x="28.2" y="18.7" class="st2" width="1" height="6"/>
</g>
</svg>
