<?xml version="1.0" encoding="utf-8"?>
<!-- Generator: Adobe Illustrator 24.3.0, SVG Export Plug-In . SVG Version: 6.00 Build 0)  -->
<svg version="1.1" id="Layer_1" xmlns="http://www.w3.org/2000/svg" xmlns:xlink="http://www.w3.org/1999/xlink" x="0px" y="0px"
	 viewBox="0 0 40 40" style="enable-background:new 0 0 40 40;" xml:space="preserve">
<style type="text/css">
	.st0{fill:none;stroke:#1E90FF;stroke-width:2;stroke-linecap:round;stroke-linejoin:round;stroke-miterlimit:160;}
	.st1{opacity:0.15;fill:#1E90FF;stroke:#1E90FF;stroke-width:2;stroke-linecap:round;stroke-linejoin:round;stroke-miterlimit:160;}
</style>
<g>
	<path id="primary" class="st0" d="M10.4,14.2l1.9,1.9l3.8-3.8"/>
	<path id="primary-2" class="st0" d="M10.4,25.6l1.9,1.9l3.8-3.8"/>
	<path id="primary-3" class="st0" d="M29.5,25.6h-5.7 M29.5,14.2h-5.7"/>
	<path class="st1" d="M37.1,4.7v30.5c0,1-0.8,1.9-1.9,1.9H4.7c-1,0-1.9-0.8-1.9-1.9V4.7c0-1,0.8-1.9,1.9-1.9h30.5
		C36.4,2.9,37.1,3.6,37.1,4.7z"/>
	<path class="st0" d="M37.1,4.7v30.5c0,1-0.8,1.9-1.9,1.9H4.7c-1,0-1.9-0.8-1.9-1.9V4.7c0-1,0.8-1.9,1.9-1.9h30.5
		C36.4,2.9,37.1,3.6,37.1,4.7z"/>
</g>
</svg>
