<?xml version="1.0" encoding="utf-8"?>
<!-- Generator: Adobe Illustrator 24.3.0, SVG Export Plug-In . SVG Version: 6.00 Build 0)  -->
<svg version="1.1" id="Layer_1" xmlns="http://www.w3.org/2000/svg" xmlns:xlink="http://www.w3.org/1999/xlink" x="0px" y="0px"
	 viewBox="0 0 40 40" style="enable-background:new 0 0 40 40;" xml:space="preserve">
<style type="text/css">
	.st0{opacity:0.15;fill-rule:evenodd;clip-rule:evenodd;fill:#1E90FF;enable-background:new    ;}
	.st1{fill:none;stroke:#1E90FF;stroke-width:2;stroke-linecap:round;stroke-linejoin:round;stroke-miterlimit:160;}
</style>
<path class="st0" d="M6.9,2.6c-2,0-3.6,0.8-3.6,1.8v30.7c0,1,1.6,1.8,3.6,1.8h28.5c2,0,3.6-0.8,3.6-1.8V4.4c0-1-1.6-1.8-3.6-1.8
	h-5.7v0.9H12.8V2.6H6.9z"/>
<path id="primary" class="st1" d="M10.9,14l1.9,1.9l3.8-3.8"/>
<path id="primary-2" class="st1" d="M10.9,25.4l1.9,1.9l3.8-3.8"/>
<path id="primary-3" class="st1" d="M30,14h-5.7 M30,25.4h-5.7 M35.7,2.6H5.2c-1.1,0-1.9,0.9-1.9,1.9V35c0,1.1,0.9,1.9,1.9,1.9h30.5
	c1.1,0,1.9-0.9,1.9-1.9V4.5C37.6,3.4,36.8,2.6,35.7,2.6z"/>
</svg>
