<?xml version="1.0" encoding="utf-8"?>
<!-- Generator: Adobe Illustrator 24.3.0, SVG Export Plug-In . SVG Version: 6.00 Build 0)  -->
<svg version="1.1" id="Layer_1" xmlns="http://www.w3.org/2000/svg" xmlns:xlink="http://www.w3.org/1999/xlink" x="0px" y="0px"
	 viewBox="0 0 40 40" style="enable-background:new 0 0 40 40;" xml:space="preserve">
<style type="text/css">
	.st0{opacity:0.15;fill-rule:evenodd;clip-rule:evenodd;fill:#1E90FF;enable-background:new    ;}
	.st1{fill:#1E90FF;}
</style>
<path class="st0" d="M5.7,4.1c-2,0-3.6,0.5-3.6,1.2v20.6c0,0.7,1.6,1.2,3.6,1.2h28.5c2,0,3.6-0.5,3.6-1.2V5.3c0-0.7-1.6-1.2-3.6-1.2
	h-5.7v0.6H11.7V4.1H5.7z"/>
<path class="st1" d="M85.2,27.2c-0.4,0-0.7,0.3-0.7,0.7s0.3,0.7,0.7,0.7V27.2z M90.2,28.5c0.4,0,0.7-0.3,0.7-0.7s-0.3-0.7-0.7-0.7
	V28.5z M77.1,20.9c0,0.4,0.3,0.7,0.7,0.7s0.7-0.3,0.7-0.7H77.1z M78.5,23.9c0-0.4-0.3-0.7-0.7-0.7c-0.4,0-0.7,0.3-0.7,0.7H78.5z
	 M96.9-0.9c0,0.4,0.3,0.7,0.7,0.7s0.7-0.3,0.7-0.7C98.3-0.9,96.9-0.9,96.9-0.9z M98.3,2.1c0-0.4-0.3-0.7-0.7-0.7s-0.7,0.3-0.7,0.7
	H98.3z M95.2,30.1h-15v1.4h15V30.1z M80.2-7.1h3v-1.4h-3V-7.1z M82.6-6.8H84v-1h-1.4V-6.8z M84.2-5.2h7v-1.3h-7V-5.2z M83.2-7.1h8.9
	v-1.4h-8.9V-7.1z M92.1-7.1h3v-1.4h-3V-7.1z M92.8-6.8v-1h-1.4v1H92.8z M85.2,28.5h5v-1.4h-5V28.5z M78.5,20.9V-5.4h-1.4v26.3H78.5z
	 M78.5,28.4v-4.5h-1.4v4.5H78.5z M96.9-5.4v4.5h1.4v-4.5H96.9z M96.9,2.1v26.3h1.4V2.1H96.9z M91.2-5.2c0.9,0,1.6-0.7,1.6-1.6h-1.4
	c0,0.2-0.1,0.3-0.3,0.3L91.2-5.2L91.2-5.2z M80.2,30.1c-1,0-1.7-0.8-1.7-1.7h-1.4c0,1.7,1.4,3.1,3.1,3.1V30.1z M95.2,31.5
	c1.7,0,3.1-1.4,3.1-3.1h-1.4c0,1-0.8,1.7-1.7,1.7V31.5z M95.2-7.1c1,0,1.7,0.8,1.7,1.7h1.4c0-1.7-1.4-3.1-3.1-3.1V-7.1z M82.6-6.8
	c0,0.9,0.7,1.6,1.6,1.6v-1.3c-0.2,0-0.3-0.1-0.3-0.3H82.6z M80.2-8.5c-1.7,0-3.1,1.4-3.1,3.1h1.4c0-1,0.8-1.7,1.7-1.7
	C80.2-7.1,80.2-8.5,80.2-8.5z"/>
<g>
	<g>
		<path class="st1" d="M38.9,26.8l-7.4-7.4c2.3-3,2.1-7.3-0.6-10.1c-3-3-7.8-3-10.8,0c-3,3-3,7.8,0,10.8c2.8,2.8,7.1,3,10.1,0.6
			l7.4,7.4c0.4,0.4,1,0.4,1.4,0C39.2,27.8,39.2,27.1,38.9,26.8z M29.5,18.8c-2.2,2.2-5.9,2.2-8.1,0c-2.2-2.2-2.2-5.9,0-8.1
			c2.2-2.2,5.9-2.2,8.1,0C31.7,12.9,31.7,16.5,29.5,18.8z"/>
		<path class="st1" d="M3.2,25.2v-20h33.2v17.9l1.9,1.9V5c0-0.9-0.8-1.7-1.7-1.7H3C2.1,3.3,1.4,4.1,1.4,5v20.4C1.4,26.3,2.1,27,3,27
			h13.4v5.3c0,0.6,0.5,1.2,1.2,1.2h3.6c0.6,0,1.2-0.5,1.2-1.2V27h13.1l-1.9-1.9H3.2z M17.6,32.4V27h3.6l0,5.3L17.6,32.4z"/>
		<path class="st1" d="M25.4,31.1v1.1c-0.1,0-0.1-0.1-0.1-0.1v2.3H13.6v-2.3c0,0.1-0.1,0.1-0.1,0.1v-1.1c-0.5,0-1,0.4-1,1v2.5
			c0,0.5,0.4,1,1,1h11.9c0.5,0,1-0.4,1-1v-2.5C26.4,31.6,25.9,31.1,25.4,31.1z"/>
		<path class="st1" d="M15.6,23.2h2.9c0.1,0,0.2-0.1,0.2-0.2v-3.5c-0.6-0.8-1-1.8-1.2-2.7l-2,2.1V23C15.4,23.1,15.5,23.2,15.6,23.2z
			"/>
		<path class="st1" d="M23.6,23.2c0.1,0,0.2-0.1,0.2-0.2v-0.1c-1.2-0.3-2.3-0.8-3.3-1.5V23c0,0.1,0.1,0.2,0.2,0.2H23.6z"/>
		<path class="st1" d="M23.6,18.4h-1.4c0.5,0.4,1,0.8,1.6,1v-0.8C23.8,18.4,23.7,18.4,23.6,18.4z"/>
		<path class="st1" d="M28.4,23.2c0.1,0,0.2-0.1,0.2-0.2v-0.5c-1,0.4-2,0.6-3,0.6c-0.1,0-0.1,0-0.2,0c0,0.1,0.1,0.1,0.2,0.1
			L28.4,23.2L28.4,23.2z"/>
		<path class="st1" d="M28.2,14c-0.2,0-0.4-0.1-0.5-0.2l-0.5-0.4l-1.9,2v4.2c0.1,0,0.2,0,0.2,0c1.1,0,2.2-0.4,3-1v-4.8c0,0,0,0,0,0
			C28.5,14,28.3,14,28.2,14z"/>
		<path class="st1" d="M22.9,17.3l4.3-4.7l1,0.8c0,0,0.1,0,0.2,0c0.1,0,0.1-0.1,0.1-0.2l-0.2-2.5c0-0.1-0.1-0.2-0.2-0.1l-2.5,0.2
			c-0.1,0-0.1,0-0.1,0.1c0,0,0,0,0,0.1c0,0,0,0.1,0.1,0.1l1,0.8l-4.1,4.5l-1.7-0.6c0.1,0.4,0.2,0.7,0.4,1l1.3,0.5
			C22.6,17.4,22.7,17.4,22.9,17.3z"/>
		<path class="st1" d="M17.2,15l-2.8,2.9c-0.2,0.2-0.2,0.4,0,0.6c0.1,0.1,0.2,0.1,0.3,0.1c0.1,0,0.2,0,0.3-0.1l2.3-2.4
			C17.2,15.7,17.2,15.3,17.2,15z"/>
	</g>
</g>
</svg>
