<?xml version="1.0" encoding="utf-8"?>
<!-- Generator: Adobe Illustrator 24.3.0, SVG Export Plug-In . SVG Version: 6.00 Build 0)  -->
<svg version="1.1" id="Layer_1" xmlns="http://www.w3.org/2000/svg" xmlns:xlink="http://www.w3.org/1999/xlink" x="0px" y="0px"
	 viewBox="0 0 40 40" style="enable-background:new 0 0 40 40;" xml:space="preserve">
<style type="text/css">
	.st0{fill:#1E90FF;}
	.st1{opacity:0.2;fill:#1E90FF;}
</style>
<g>
	<g>
		<path class="st0" d="M38.6,18.3c-0.5,0-0.8,0.4-0.8,0.8v3.4c0,1.9-1.5,3.4-3.4,3.4H5.6c-1.9,0-3.4-1.5-3.4-3.4V5.6
			c0-1.9,1.5-3.4,3.4-3.4h28.7c1.9,0,3.4,1.5,3.4,3.4c0,0.5,0.4,0.8,0.8,0.8s0.8-0.4,0.8-0.8c0-2.8-2.3-5.1-5.1-5.1H5.6
			c-2.8,0-5.1,2.3-5.1,5.1v16.9c0,2.8,2.3,5.1,5.1,5.1h28.7c2.8,0,5.1-2.3,5.1-5.1v-3.4C39.4,18.7,39.1,18.3,38.6,18.3L38.6,18.3z"
			/>
		<path class="st0" d="M38.6,11.6c-0.5,0-0.8,0.4-0.8,0.8v3.4c0,0.5,0.4,0.8,0.8,0.8s0.8-0.4,0.8-0.8v-3.4
			C39.4,11.9,39.1,11.6,38.6,11.6L38.6,11.6z M38,8.4c-0.3,0.3-0.3,0.9,0,1.2c0,0,0,0,0,0c0.3,0.3,0.9,0.3,1.2,0c0,0,0,0,0,0
			l0.1-0.1c0,0,0.1-0.1,0.1-0.1c0,0,0.1-0.1,0.1-0.2c0-0.1,0-0.1,0-0.2c0-0.5-0.4-0.8-0.8-0.8C38.4,8.2,38.1,8.3,38,8.4L38,8.4z
			 M35.2,37.7H4.8c-0.5,0-0.8,0.4-0.8,0.8c0,0.5,0.4,0.8,0.8,0.8h30.4c0.5,0,0.8-0.4,0.8-0.8C36.1,38.1,35.7,37.7,35.2,37.7z
			 M26.8,33.5c0.5,0,0.8-0.4,0.8-0.8s-0.4-0.8-0.8-0.8l0,0H13.2c-0.5,0-0.8,0.4-0.8,0.8s0.4,0.8,0.8,0.8H26.8z M27.6,14.9
			c0.5,0,0.8-0.4,0.8-0.8c0-0.5-0.4-0.8-0.8-0.8h-1.8c-0.1-1-0.5-1.9-1.1-2.7L26,9.3c0.4-0.3,0.4-0.8,0.1-1.2
			c-0.3-0.4-0.8-0.4-1.2-0.1c0,0-0.1,0.1-0.1,0.1l-1.3,1.2c-0.8-0.6-1.7-1-2.7-1.1V6.5c0-0.5-0.4-0.8-0.8-0.8
			c-0.5,0-0.8,0.4-0.8,0.8v1.8c-1,0.1-1.9,0.5-2.7,1.1l-1.3-1.2c-0.4-0.3-0.9-0.3-1.2,0.1c-0.3,0.3-0.3,0.8,0,1.1l1.2,1.2
			c-0.6,0.8-1,1.7-1.1,2.7h-1.8c-0.5,0-0.8,0.4-0.8,0.8c0,0.5,0.4,0.8,0.8,0.8h1.8c0.1,1,0.5,1.9,1.1,2.7L14,18.9
			c-0.4,0.3-0.4,0.8-0.1,1.2c0.3,0.4,0.8,0.4,1.2,0.1c0,0,0.1-0.1,0.1-0.1l1.2-1.2c0.8,0.6,1.7,1,2.7,1.1v1.8c0,0.5,0.4,0.8,0.8,0.8
			c0.5,0,0.8-0.4,0.8-0.8v-1.8c1-0.1,1.9-0.5,2.7-1.1l1.2,1.2c0.4,0.3,0.9,0.3,1.2-0.1c0.3-0.3,0.3-0.8,0-1.1l-1.2-1.3
			c0.6-0.8,1-1.7,1.1-2.7H27.6z M20,18.3c-2.3,0-4.2-1.9-4.2-4.2c0-2.3,1.9-4.2,4.2-4.2c2.3,0,4.2,1.9,4.2,4.2S22.3,18.3,20,18.3
			L20,18.3z"/>
	</g>
	<path class="st1" d="M32.1,27.4H8c-3.5,0-6.4-2.9-6.4-6.4V7.4c0-3.5,2.9-6.4,6.4-6.4h24.1c3.5,0,6.4,2.9,6.4,6.4v13.5
		C38.6,24.4,35.7,27.4,32.1,27.4z"/>
</g>
</svg>
