<?xml version="1.0" encoding="utf-8"?>
<!-- Generator: Adobe Illustrator 24.3.0, SVG Export Plug-In . SVG Version: 6.00 Build 0)  -->
<svg version="1.1" id="Layer_1" xmlns="http://www.w3.org/2000/svg" xmlns:xlink="http://www.w3.org/1999/xlink" x="0px" y="0px"
	 viewBox="0 0 800 800" style="enable-background:new 0 0 800 800;" xml:space="preserve">
<style type="text/css">
	.st0{fill:#1E90FF;}
</style>
<path class="st0" d="M399.1,242.8c0,55.9-45.3,101.3-101.2,101.3c-55.6-0.3-100.9-45.6-100.9-101.3c0-55.9,45.3-101.2,100.9-101.2
	c6.6,0,13.4,0.6,19.7,1.9l-23.8,50.9c-0.9,0-1.9,0-3.1,0c-23.8,0-43.1,19.4-43.1,43.1s19.4,43.1,43.1,43.1
	c23.8,0,43.1-19.4,43.1-43.1c0-11.6-4.7-22.2-12.2-30l25-53.4C377.8,171.2,399.1,204.4,399.1,242.8z M793.8,596.6h-72.8
	c15.3-4.4,28.4-14.4,37.5-27.8c12.5-19.4,14.4-43.1,5-64.1l-77.5-173.4l-35.3-13.4L698.1,155l-46.6-13.4L550.9,487.2l46.6,13.4
	l42.2-144.7l16.9,6.2l70.9,158.4c4.1,8.8,3.1,18.4-2.2,26.6c-5.3,8.1-13.8,12.8-23.4,12.8h-105v36.9h-98.4
	c-0.9-34.7-28.1-61.6-61.6-61.6H301.6c0,0-60-157.8-61.2-160.3c-12.5-32.8-40.3-56.6-76.2-56.6c-45.9,0-80.9,38.1-105.9,93.1
	C24.7,485,6.6,573.1,6.2,658.8l787.5-0.3V596.6z"/>
</svg>
